HIERARCHY
ROOT hip
{
  OFFSET 0 0 0
  CHANNELS 6 Xposition Yposition Zposition Zrotation Yrotation Xrotation
  JOINT abdomen
  {
    OFFSET 0 20.6881 -0.73152
    CHANNELS 3 Zrotation Xrotation Yrotation
    JOINT chest
    {
      OFFSET 0 11.7043 -0.48768
      CHANNELS 3 Zrotation Xrotation Yrotation
      JOINT neck
      {
        OFFSET 0 22.1894 -2.19456
        CHANNELS 3 Zrotation Xrotation Yrotation
        JOINT head
        {
          OFFSET -0.24384 7.07133 1.2192
          CHANNELS 3 Zrotation Xrotation Yrotation
          JOINT leftEye
          {
            OFFSET 4.14528 8.04674 8.04672
            CHANNELS 3 Zrotation Xrotation Yrotation
            End Site
            {
              OFFSET 1 0 0
            }
          }
          JOINT rightEye
          {
            OFFSET -3.6576 8.04674 8.04672
            CHANNELS 3 Zrotation Xrotation Yrotation
            End Site
            {
              OFFSET 1 0 0
            }
          }
        }
      }
      JOINT rCollar
      {
        OFFSET -2.68224 19.2634 -4.8768
        CHANNELS 3 Zrotation Xrotation Yrotation
        JOINT rShldr
        {
          OFFSET -8.77824 -1.95073 1.46304
          CHANNELS 3 Zrotation Xrotation Yrotation
          JOINT rForeArm
          {
            OFFSET -28.1742 -1.7115 0.48768
            CHANNELS 3 Zrotation Xrotation Yrotation
            JOINT rHand
            {
              OFFSET -22.5879 0.773209 7.07136
              CHANNELS 3 Zrotation Xrotation Yrotation
              JOINT rThumb1
              {
                OFFSET -1.2192 -0.487915 3.41376
                CHANNELS 3 Zrotation Xrotation Yrotation
                JOINT rThumb2
                {
                  OFFSET -3.37035 -0.52449 3.41376
                  CHANNELS 3 Zrotation Xrotation Yrotation
                  End Site
                  {
                    OFFSET -1.78271 -1.18214 1.43049
                  }
                }
              }
              JOINT rIndex1
              {
                OFFSET -7.75947 0.938293 5.60832
                CHANNELS 3 Zrotation Xrotation Yrotation
                JOINT rIndex2
                {
                  OFFSET -2.54057 -0.884171 1.56538
                  CHANNELS 3 Zrotation Xrotation Yrotation
                  End Site
                  {
                    OFFSET -1.62519 -0.234802 1.16502
                  }
                }
              }
              JOINT rMid1
              {
                OFFSET -8.24714 1.18213 3.41376
                CHANNELS 3 Zrotation Xrotation Yrotation
                JOINT rMid2
                {
                  OFFSET -3.10165 -0.590103 1.0647
                  CHANNELS 3 Zrotation Xrotation Yrotation
                  End Site
                  {
                    OFFSET -2.48547 -0.328903 0.83742
                  }
                }
              }
              JOINT rRing1
              {
                OFFSET -8.82822 0.546677 1.51678
                CHANNELS 3 Zrotation Xrotation Yrotation
                JOINT rRing2
                {
                  OFFSET -2.60934 -0.819778 -0.0198488
                  CHANNELS 3 Zrotation Xrotation Yrotation
                  End Site
                  {
                    OFFSET -2.33842 -0.294052 0.168128
                  }
                }
              }
              JOINT rPinky1
              {
                OFFSET -8.27202 -0.0477905 -0.4584
                CHANNELS 3 Zrotation Xrotation Yrotation
                JOINT rPinky2
                {
                  OFFSET -1.82734 -0.647385 -0.700984
                  CHANNELS 3 Zrotation Xrotation Yrotation
                  End Site
                  {
                    OFFSET -1.69225 -0.51767 -0.607171
                  }
                }
              }
            }
          }
        }
      }
      JOINT lCollar
      {
        OFFSET 2.68224 19.2634 -4.8768
        CHANNELS 3 Zrotation Xrotation Yrotation
        JOINT lShldr
        {
          OFFSET 8.77824 -1.95073 1.46304
          CHANNELS 3 Zrotation Xrotation Yrotation
          JOINT lForeArm
          {
            OFFSET 28.1742 -1.7115 0.48768
            CHANNELS 3 Zrotation Xrotation Yrotation
            JOINT lHand
            {
              OFFSET 22.5879 0.773209 7.07136
              CHANNELS 3 Zrotation Xrotation Yrotation
              JOINT lThumb1
              {
                OFFSET 1.2192 -0.487915 3.41376
                CHANNELS 3 Zrotation Xrotation Yrotation
                JOINT lThumb2
                {
                  OFFSET 3.37035 -0.52449 3.41376
                  CHANNELS 3 Zrotation Xrotation Yrotation
                  End Site
                  {
                    OFFSET 1.78271 -1.18214 1.43049
                  }
                }
              }
              JOINT lIndex1
              {
                OFFSET 7.75947 0.938293 5.60832
                CHANNELS 3 Zrotation Xrotation Yrotation
                JOINT lIndex2
                {
                  OFFSET 2.54057 -0.884171 1.56538
                  CHANNELS 3 Zrotation Xrotation Yrotation
                  End Site
                  {
                    OFFSET 1.62519 -0.234802 1.16502
                  }
                }
              }
              JOINT lMid1
              {
                OFFSET 8.24714 1.18213 3.41376
                CHANNELS 3 Zrotation Xrotation Yrotation
                JOINT lMid2
                {
                  OFFSET 3.10165 -0.590103 1.0647
                  CHANNELS 3 Zrotation Xrotation Yrotation
                  End Site
                  {
                    OFFSET 2.48547 -0.328903 0.83742
                  }
                }
              }
              JOINT lRing1
              {
                OFFSET 8.82822 0.546677 1.51678
                CHANNELS 3 Zrotation Xrotation Yrotation
                JOINT lRing2
                {
                  OFFSET 2.60934 -0.819778 -0.0198488
                  CHANNELS 3 Zrotation Xrotation Yrotation
                  End Site
                  {
                    OFFSET 2.33842 -0.294052 0.168128
                  }
                }
              }
              JOINT lPinky1
              {
                OFFSET 8.27202 -0.0477905 -0.4584
                CHANNELS 3 Zrotation Xrotation Yrotation
                JOINT lPinky2
                {
                  OFFSET 1.82734 -0.647385 -0.700984
                  CHANNELS 3 Zrotation Xrotation Yrotation
                  End Site
                  {
                    OFFSET 1.69225 -0.51767 -0.607171
                  }
                }
              }
            }
          }
        }
      }
    }
  }
  JOINT rButtock
  {
    OFFSET -8.77824 4.35084 1.2192
    CHANNELS 3 Zrotation Xrotation Yrotation
    JOINT rThigh
    {
      OFFSET 0 -1.70687 -2.19456
      CHANNELS 3 Zrotation Xrotation Yrotation
      JOINT rShin
      {
        OFFSET 0 -36.8199 0.73152
        CHANNELS 3 Zrotation Xrotation Yrotation
        JOINT rFoot
        {
          OFFSET 0.73152 -45.1104 -5.12064
          CHANNELS 3 Zrotation Xrotation Yrotation
          End Site
          {
            OFFSET -1.1221 -3.69964 12.103
          }
        }
      }
    }
  }
  JOINT lButtock
  {
    OFFSET 8.77824 4.35084 1.2192
    CHANNELS 3 Zrotation Xrotation Yrotation
    JOINT lThigh
    {
      OFFSET 0 -1.70687 -2.19456
      CHANNELS 3 Zrotation Xrotation Yrotation
      JOINT lShin
      {
        OFFSET 0 -36.8199 0.73152
        CHANNELS 3 Zrotation Xrotation Yrotation
        JOINT lFoot
        {
          OFFSET -0.73152 -45.1104 -5.12064
          CHANNELS 3 Zrotation Xrotation Yrotation
          End Site
          {
            OFFSET 1.1221 -3.69964 12.103
          }
        }
      }
    }
  }
}
MOTION
Frames:	8
Frame Time:	0.00833333
57.196 86.0143 1.2528 -0.8217 -0.3505 12.387 -6.99341 2.26753 3.71574 6.43248 4.56702 0.770268 -1.39403 10.3499 -1.4684 9.48593 4.19198 -2.96215 -0.0 0.0 0.0 -0.0 0.0 0.0 2.26739e-14 2.44902e-13 -2.33572e-15 68.6925 19.8665 -3.04138 -13.1807 -6.31198 23.9197 -0.170318 11.6807 1.66497 -1.56257e-10 1.00221e-09 -2.80131e-09 -2.98511e-10 1.74008e-09 -4.8422e-09 -1.56254e-10 1.00221e-09 -2.80133e-09 7.73091 5.47488 0.417314 -1.56258e-10 1.00221e-09 -2.80132e-09 2.90554 0.965183 0.102902 -1.56252e-10 1.00221e-09 -2.80132e-09 10.2786 0.731801 0.0259123 -1.56259e-10 1.00221e-09 -2.80131e-09 2.22167 -0.733487 -0.20892 2.26505e-14 2.44902e-13 -2.43511e-15 -58.8486 29.4373 -26.1668 9.65351 -3.93343 -17.1533 0.531597 20.2635 -2.97417 -1.95947e-09 -1.43537e-09 1.19742e-10 -3.38531e-09 -2.4565e-09 2.37825e-10 -1.95948e-09 -1.43537e-09 1.19761e-10 -7.73091 5.47488 -0.417314 -1.95947e-09 -1.43537e-09 1.19738e-10 -2.90554 0.965183 -0.102902 -1.95948e-09 -1.43537e-09 1.19742e-10 -10.2786 0.731801 -0.0259123 -1.95947e-09 -1.43537e-09 1.19732e-10 -2.22167 -0.733487 0.20892 -2.03217e-16 0.0 -3.88251e-19 -5.85957 -32.4574 7.50879 -0.121656 32.8734 0.626251 -2.64523 -14.1632 -8.2803 2.03217e-16 0.0 3.88251e-19 -0.798979 -22.5799 -9.36878 0.141232 20.5208 -0.367827 3.30342 -14.742 8.94265
57.0984 86.0104 2.09089 -0.8215 0.3502 12.1173 -7.06757 2.5479 3.16471 6.68766 4.68664 0.591517 -1.20199 10.3955 -1.55695 9.45754 4.35924 -3.16042 -0.0 0.0 0.0 -0.0 0.0 0.0 1.63321e-15 2.13172e-13 3.89998e-15 69.3494 19.7571 -4.26864 -13.0778 -6.23329 23.7174 -0.181173 12.0271 1.71591 -9.28218e-11 8.62084e-10 -2.14055e-09 -1.81776e-10 1.49682e-09 -3.70024e-09 -9.28187e-11 8.62088e-10 -2.14056e-09 7.73091 5.47488 0.417314 -9.28229e-11 8.62086e-10 -2.14056e-09 2.90554 0.965183 0.102902 -9.28151e-11 8.62085e-10 -2.14056e-09 10.2786 0.731801 0.0259123 -9.28229e-11 8.62084e-10 -2.14055e-09 2.22167 -0.733487 -0.20892 1.56415e-15 2.13171e-13 3.7672e-15 -58.142 29.8532 -27.6739 9.60591 -3.90516 -17.0647 0.549563 20.5965 -3.0273 -1.78526e-09 -1.24379e-09 1.49361e-10 -3.08392e-09 -2.12775e-09 2.86204e-10 -1.78527e-09 -1.24379e-09 1.49379e-10 -7.73091 5.47488 -0.417314 -1.78526e-09 -1.2438e-09 1.49357e-10 -2.90554 0.965183 -0.102902 -1.78527e-09 -1.24379e-09 1.49362e-10 -10.2786 0.731801 -0.0259123 -1.78526e-09 -1.24379e-09 1.49352e-10 -2.22167 -0.733487 0.20892 -2.03217e-16 0.0 -3.88251e-19 -6.58011 -33.2735 7.44783 -0.119319 32.5483 0.593492 -2.73773 -13.5632 -8.9682 2.03217e-16 0.0 3.88251e-19 -0.974286 -21.826 -9.62431 0.142743 20.3373 -0.348587 3.22102 -15.0629 8.58002
56.9738 86.0089 2.94781 -0.7634 1.0506 11.8589 -7.19057 2.83944 2.60819 6.98879 4.80724 0.408825 -0.913133 10.5544 -1.60571 9.25542 4.4305 -3.27905 -0.0 0.0 0.0 -0.0 0.0 0.0 -2.04367e-14 1.11518e-13 8.12222e-15 70.1457 19.563 -5.51608 -12.9862 -6.1636 23.5379 -0.189854 12.3003 1.75616 -1.3205e-11 4.71272e-10 -7.77861e-10 -2.96633e-11 8.18462e-10 -1.3449e-09 -1.32011e-11 4.71276e-10 -7.7787e-10 7.73091 5.47488 0.417314 -1.32059e-11 4.71274e-10 -7.77863e-10 2.90554 0.965183 0.102902 -1.31953e-11 4.71273e-10 -7.7786e-10 10.2786 0.731801 0.0259123 -1.32048e-11 4.71274e-10 -7.77852e-10 2.22167 -0.733487 -0.20892 -2.05857e-14 1.11517e-13 7.92343e-15 -57.6425 30.1404 -29.0745 9.53788 -3.86477 -16.9384 0.584773 21.2141 -3.12678 -1.17723e-09 -8.32996e-10 -1.13635e-11 -2.03613e-09 -1.42672e-09 -9.88598e-13 -1.17724e-09 -8.32994e-10 -1.13482e-11 -7.73091 5.47488 -0.417314 -1.17723e-09 -8.33003e-10 -1.13701e-11 -2.90554 0.965183 -0.102902 -1.17724e-09 -8.32998e-10 -1.13637e-11 -10.2786 0.731801 -0.0259123 -1.17723e-09 -8.32996e-10 -1.13717e-11 -2.22167 -0.733487 0.20892 -2.03217e-16 0.0 -3.88251e-19 -7.31668 -33.9492 7.41892 -0.11503 32.1057 0.558856 -2.83823 -12.9647 -9.73776 2.03217e-16 0.0 3.88251e-19 -1.13849 -21.0232 -9.91151 0.144294 20.1568 -0.330041 3.13544 -15.4457 8.19325
56.8769 85.977 3.78997 -0.5326 1.8026 11.7077 -7.31489 3.11506 2.06803 7.29178 4.92491 0.231075 -0.638199 10.7316 -1.63681 9.06397 4.48322 -3.3626 -0.0 0.0 0.0 -0.0 0.0 0.0 -3.71727e-14 -5.71422e-16 6.04702e-15 71.0366 19.2265 -6.74233 -12.8821 -6.08567 23.3328 -0.198574 12.5798 1.79734 5.99163e-11 2.70574e-11 6.05156e-10 1.11251e-10 4.73896e-11 1.0456e-09 5.99211e-11 2.70614e-11 6.05151e-10 7.73091 5.47488 0.417314 5.99154e-11 2.70602e-11 6.05158e-10 2.90554 0.965183 0.102902 5.99286e-11 2.70602e-11 6.05162e-10 10.2786 0.731801 0.0259123 5.99178e-11 2.70617e-11 6.0517e-10 2.22167 -0.733487 -0.20892 -3.73984e-14 -5.7359e-16 5.78223e-15 -57.2467 30.481 -30.3953 9.49365 -3.83865 -16.8562 0.620072 21.7961 -3.22164 -4.82825e-10 -3.85947e-10 -2.16448e-10 -8.3981e-10 -6.64134e-10 -3.6613e-10 -4.82843e-10 -3.85947e-10 -2.16436e-10 -7.73091 5.47488 -0.417314 -4.82828e-10 -3.85957e-10 -2.16456e-10 -2.90554 0.965183 -0.102902 -4.82833e-10 -3.85952e-10 -2.16448e-10 -10.2786 0.731801 -0.0259123 -4.82822e-10 -3.8595e-10 -2.16455e-10 -2.22167 -0.733487 0.20892 -2.03217e-16 0.0 -3.88251e-19 -8.05297 -34.5538 7.33476 -0.109531 31.5955 0.521952 -2.90643 -12.3215 -10.4764 2.03217e-16 0.0 3.88251e-19 -1.27253 -20.2306 -10.1964 0.14605 20.0206 -0.31307 3.06571 -15.8585 7.85292
56.8096 85.9161 4.61787 -0.1281 2.5344 11.6752 -7.39448 3.34766 1.56615 7.55245 5.03575 0.0671627 -0.488041 10.8319 -1.6723 9.06851 4.59479 -3.4557 -0.0 0.0 0.0 -0.0 0.0 0.0 -4.22117e-14 -6.36109e-14 -6.60959e-15 71.9734 18.6915 -7.90509 -12.7409 -5.98196 23.0533 -0.21004 12.945 1.85123 1.03865e-10 -2.73273e-10 1.3269e-09 1.94391e-10 -4.74008e-10 2.29308e-09 1.03871e-10 -2.7327e-10 1.32689e-09 7.73091 5.47488 0.417314 1.03864e-10 -2.7327e-10 1.3269e-09 2.90554 0.965183 0.102902 1.03878e-10 -2.7327e-10 1.3269e-09 10.2786 0.731801 0.0259123 1.03867e-10 -2.73268e-10 1.32691e-09 2.22167 -0.733487 -0.20892 -4.24733e-14 -6.36134e-14 -6.90777e-15 -56.8313 31.0494 -31.676 9.5177 -3.85335 -16.9001 0.634282 22.0226 -3.25882 -4.95053e-11 -8.5611e-11 -3.19907e-10 -9.28153e-11 -1.50685e-10 -5.51597e-10 -4.95256e-11 -8.56118e-11 -3.19897e-10 -7.73091 5.47488 -0.417314 -4.95118e-11 -8.56232e-11 -3.19916e-10 -2.90554 0.965183 -0.102902 -4.95148e-11 -8.56174e-11 -3.19907e-10 -10.2786 0.731801 -0.0259123 -4.95024e-11 -8.56158e-11 -3.19913e-10 -2.22167 -0.733487 0.20892 -2.03217e-16 0.0 -3.88251e-19 -8.77749 -35.1566 7.10575 -0.103453 31.0674 0.482312 -2.90466 -11.5882 -11.0726 2.03217e-16 0.0 3.88251e-19 -1.36049 -19.5072 -10.4454 0.14812 19.97 -0.298537 3.03374 -16.2692 7.63028
56.7097 85.836 5.45299 0.224 3.1646 11.6848 -7.40865 3.53009 1.11291 7.75938 5.13629 -0.079192 -0.537652 10.8306 -1.72379 9.40025 4.78274 -3.58011 -0.0 0.0 0.0 -0.0 0.0 0.0 -2.66189e-14 -4.73351e-14 -4.30233e-14 72.9585 17.9459 -8.98978 -12.5351 -5.83296 22.6471 -0.225815 13.4186 1.92142 1.43281e-10 -3.72084e-10 9.3836e-10 2.56955e-10 -6.46181e-10 1.62081e-09 1.43289e-10 -3.72082e-10 9.38357e-10 7.73091 5.47488 0.417314 1.4328e-10 -3.72082e-10 9.38361e-10 2.90554 0.965183 0.102902 1.43294e-10 -3.72081e-10 9.38364e-10 10.2786 0.731801 0.0259123 1.43283e-10 -3.72079e-10 9.38372e-10 2.22167 -0.733487 -0.20892 -2.68525e-14 -4.73379e-14 -4.33052e-14 -56.3241 31.9288 -32.9676 9.63047 -3.92038 -17.1094 0.61633 21.7375 -3.212 -1.38625e-11 9.32576e-12 -2.39295e-10 -2.97463e-11 1.49326e-11 -4.12795e-10 -1.38805e-11 9.32567e-12 -2.39288e-10 -7.73091 5.47488 -0.417314 -1.38696e-11 9.31327e-12 -2.39306e-10 -2.90554 0.965183 -0.102902 -1.38722e-11 9.32059e-12 -2.39296e-10 -10.2786 0.731801 -0.0259123 -1.38587e-11 9.32176e-12 -2.39302e-10 -2.22167 -0.733487 0.20892 -2.03217e-16 0.0 -3.88251e-19 -9.51303 -35.7855 6.67862 -0.0971598 30.5246 0.439272 -2.81921 -10.7052 -11.5131 2.03217e-16 0.0 3.88251e-19 -1.38656 -18.8972 -10.6473 0.150497 20.0387 -0.287464 3.06054 -16.6674 7.57903
56.5341 85.7387 6.31496 0.3876 3.6895 11.6699 -7.38701 3.67672 0.695199 7.93578 5.22944 -0.213166 -0.713017 10.7782 -1.77756 9.93355 5.00678 -3.70881 -0.0 0.0 0.0 -0.0 0.0 0.0 3.79949e-15 1.17292e-14 -9.68982e-14 73.9964 17.0232 -10.017 -12.2828 -5.65185 22.1536 -0.244955 13.9576 2.00176 1.80031e-10 -3.7627e-10 -1.07851e-10 3.07243e-10 -6.54485e-10 -1.88649e-10 1.80042e-10 -3.76268e-10 -1.07853e-10 7.73091 5.47488 0.417314 1.8003e-10 -3.76269e-10 -1.07852e-10 2.90554 0.965183 0.102902 1.80042e-10 -3.76268e-10 -1.07851e-10 10.2786 0.731801 0.0259123 1.80031e-10 -3.76265e-10 -1.07844e-10 2.22167 -0.733487 -0.20892 3.63345e-15 1.17262e-14 -9.71343e-14 -55.7782 33.0085 -34.2601 9.80449 -4.02376 -17.4348 0.580107 21.1349 -3.11394 -1.75941e-10 -2.56621e-13 -6.69773e-11 -3.06688e-10 3.70733e-12 -1.1242e-10 -1.75954e-10 -2.55036e-13 -6.69719e-11 -7.73091 5.47488 -0.417314 -1.75948e-10 -2.68249e-13 -6.69898e-11 -2.90554 0.965183 -0.102902 -1.75951e-10 -2.58902e-13 -6.69777e-11 -10.2786 0.731801 -0.0259123 -1.75936e-10 -2.58463e-13 -6.69843e-11 -2.22167 -0.733487 0.20892 -2.03217e-16 0.0 -3.88251e-19 -10.2662 -36.3988 6.10527 -0.090575 29.944 0.393429 -2.67418 -9.71341 -11.8544 2.03217e-16 0.0 3.88251e-19 -1.3663 -18.3592 -10.8212 0.153029 20.1973 -0.279092 3.13365 -17.0707 7.65083
56.2937 85.6415 7.21848 0.428 4.1812 11.5742 -7.35952 3.79275 0.299703 8.08946 5.32083 -0.339211 -0.901411 10.6927 -1.81767 10.4686 5.25762 -3.81332 -0.0 0.0 0.0 -0.0 0.0 0.0 3.32949e-14 7.28806e-14 -1.43311e-13 75.0406 15.9374 -10.9977 -12.0285 -5.4706 21.6617 -0.266757 14.5434 2.08951 1.57273e-10 -3.35341e-10 -1.14094e-09 2.55336e-10 -5.8389e-10 -1.97462e-09 1.57286e-10 -3.3534e-10 -1.14095e-09 7.73091 5.47488 0.417314 1.57271e-10 -3.35342e-10 -1.14095e-09 2.90554 0.965183 0.102902 1.57282e-10 -3.3534e-10 -1.14095e-09 10.2786 0.731801 0.0259123 1.57271e-10 -3.35337e-10 -1.14094e-09 2.22167 -0.733487 -0.20892 3.3202e-14 7.28777e-14 -1.43495e-13 -55.2575 34.1732 -35.5034 10.0123 -4.14864 -17.8248 0.539679 20.4205 -2.99906 -3.78379e-10 -5.79748e-11 8.08198e-11 -6.53724e-10 -9.05449e-11 1.46212e-10 -3.78386e-10 -5.79719e-11 8.08236e-11 -7.73091 5.47488 -0.417314 -3.78384e-10 -5.7985e-11 8.08065e-11 -2.90554 0.965183 -0.102902 -3.78388e-10 -5.79745e-11 8.08199e-11 -10.2786 0.731801 -0.0259123 -3.78373e-10 -5.79744e-11 8.08126e-11 -2.22167 -0.733487 0.20892 -2.03217e-16 0.0 -3.88251e-19 -11.001 -36.9617 5.45409 -0.0835125 29.3357 0.346093 -2.49471 -8.71794 -12.0906 2.03217e-16 0.0 3.88251e-19 -1.33175 -17.8245 -10.9797 0.155616 20.3918 -0.271607 3.22517 -17.4891 7.76385
